<svg width="774" height="1237" viewBox="0 0 774 1237" fill="none" xmlns="http://www.w3.org/2000/svg">
<path fill-rule="evenodd" clip-rule="evenodd" d="M199.128 42.3557C157.49 127.143 112.388 225.489 144.083 314.486C175.454 402.575 294.452 418.606 357.667 487.524C419.229 554.64 426.22 667.278 506.734 709.853C590.518 754.158 700.422 755.834 785.268 713.637C867.538 672.722 895.669 573.036 941.703 493.53C979.654 427.984 1018.61 364.28 1030.82 289.53C1043.31 213.097 1038.55 135.458 1012.1 62.6564C983.882 -15.0316 940.398 -87.0926 875.444 -138.226C806.039 -192.863 722.638 -230.72 634.399 -234.68C543.478 -238.761 454.149 -209.441 377.381 -160.581C299.85 -111.235 239.635 -40.1291 199.128 42.3557Z" fill="#FCE7E9"/>
<circle cx="598" cy="361.538" r="247" fill="#3978BF"/>
<path fill-rule="evenodd" clip-rule="evenodd" d="M1337.11 436.894C1378.75 521.681 1423.85 620.027 1392.15 709.024C1360.78 797.113 1241.79 813.144 1178.57 882.062C1117.01 949.178 1110.02 1061.82 1029.5 1104.39C945.719 1148.7 835.816 1150.37 750.969 1108.18C668.699 1067.26 640.568 967.575 594.534 888.068C556.583 822.522 517.626 758.819 505.412 684.069C492.924 607.636 497.69 529.997 524.135 457.195C552.355 379.507 595.839 307.446 660.793 256.312C730.198 201.676 813.599 163.819 901.838 159.858C992.76 155.777 1082.09 185.097 1158.86 233.957C1236.39 283.303 1296.6 354.409 1337.11 436.894Z" stroke="white" stroke-width="3"/>
<circle cx="577.5" cy="532.038" r="11.5" fill="white"/>
<circle cx="625.5" cy="435.038" r="6.5" fill="white"/>
<circle cx="495.5" cy="412.038" r="6.5" fill="white"/>
<circle cx="731.5" cy="524.038" r="3.5" fill="white"/>
<circle cx="673.5" cy="462.038" r="3.5" fill="white"/>
</svg>
