<svg width="61" height="60" viewBox="0 0 61 60" fill="none" xmlns="http://www.w3.org/2000/svg">
<path fill-rule="evenodd" clip-rule="evenodd" d="M61 3.93732V47C61 54.1797 55.1797 60 48 60H3.4912C1.24458 54.7857 0 49.0382 0 43C0 19.2518 19.2518 0 43 0C49.4268 0 55.5243 1.40992 61 3.93732Z" fill="#3978BF"/>
<path fill-rule="evenodd" clip-rule="evenodd" d="M42.8684 34.0002V37.7897H39.0789V39.0528H42.8684V42.8423H44.1315V39.0528H47.921V37.7897H44.1315V34.0002H42.8684Z" fill="white"/>
<path d="M35.0078 40.575C33.9343 40.575 33.1 41.4562 33.1 42.5297C33.1 43.6031 33.9812 44.4844 35.0078 44.4844C36.0343 44.4844 36.9156 43.6031 36.9156 42.5297C36.9156 41.4562 36.0343 40.575 35.0078 40.575ZM35.0078 43.5047C34.4687 43.5047 34.0796 43.0641 34.0796 42.525C34.0796 41.9859 34.5203 41.5453 35.0078 41.5453C35.4953 41.5453 35.9359 41.9859 35.9359 42.525C35.9359 43.0641 35.4953 43.5047 35.0078 43.5047Z" fill="white"/>
<path d="M24.5968 40.575C23.5234 40.575 22.689 41.4562 22.689 42.5297C22.689 43.6031 23.5702 44.4844 24.5968 44.4844C25.6702 44.4844 26.5046 43.6031 26.5046 42.5297C26.5046 41.4562 25.6234 40.575 24.5968 40.575ZM24.5968 43.5047C24.0577 43.5047 23.6687 43.0641 23.6687 42.525C23.6687 41.9859 24.1093 41.5453 24.5968 41.5453C25.1359 41.5453 25.5249 41.9859 25.5249 42.525C25.5249 43.0687 25.089 43.5047 24.5968 43.5047Z" fill="white"/>
<path d="M39.6015 21.5156L38.8421 24.4969H19.6609L23.2 34.9828C22.014 35.1562 21.1281 36.1594 21.1281 37.4484C21.1281 38.8641 22.2015 39.9891 23.5703 39.9891H36.864V39.0609H23.5703C22.7406 39.0609 22.1031 38.3766 22.1031 37.4953C22.1031 36.6141 22.7875 35.9297 23.5703 35.9297H36.864H36.9109L40.3796 22.4906H42.3343V21.5156H39.6015ZM36.1796 34.9547H24.2078L21.0296 25.4719H38.5749L36.1796 34.9547Z" fill="white"/>
<path d="M26.8469 27.7688H25.8672V33.2906H26.8469V27.7688Z" fill="white"/>
<path d="M30.3203 27.7688H29.3406V33.2906H30.3203V27.7688Z" fill="white"/>
<path d="M33.789 27.7688H32.8093V33.2906H33.789V27.7688Z" fill="white"/>
</svg>
