<svg width="24" height="24" viewBox="0 0 24 24" fill="none" xmlns="http://www.w3.org/2000/svg">
<path d="M16.0078 19.575C14.9343 19.575 14.1 20.4562 14.1 21.5297C14.1 22.6031 14.9812 23.4844 16.0078 23.4844C17.0343 23.4844 17.9156 22.6031 17.9156 21.5297C17.9156 20.4562 17.0343 19.575 16.0078 19.575ZM16.0078 22.5047C15.4687 22.5047 15.0796 22.0641 15.0796 21.525C15.0796 20.9859 15.5203 20.5453 16.0078 20.5453C16.4953 20.5453 16.9359 20.9859 16.9359 21.525C16.9359 22.0641 16.4953 22.5047 16.0078 22.5047Z" fill="white"/>
<path d="M5.59679 19.575C4.52336 19.575 3.68898 20.4562 3.68898 21.5297C3.68898 22.6031 4.57023 23.4844 5.59679 23.4844C6.67023 23.4844 7.50461 22.6031 7.50461 21.5297C7.50461 20.4562 6.62336 19.575 5.59679 19.575ZM5.59679 22.5047C5.05773 22.5047 4.66867 22.0641 4.66867 21.525C4.66867 20.9859 5.10929 20.5453 5.59679 20.5453C6.13586 20.5453 6.52492 20.9859 6.52492 21.525C6.52492 22.0687 6.08898 22.5047 5.59679 22.5047Z" fill="white"/>
<path d="M20.6015 0.515625L19.8421 3.49687H0.660889L4.19995 13.9828C3.01401 14.1562 2.12808 15.1594 2.12808 16.4484C2.12808 17.8641 3.20151 18.9891 4.57026 18.9891H17.864V18.0609H4.57026C3.74058 18.0609 3.10308 17.3766 3.10308 16.4953C3.10308 15.6141 3.78745 14.9297 4.57026 14.9297H17.864H17.9109L21.3796 1.49062H23.3343V0.515625H20.6015ZM17.1796 13.9547H5.20776L2.02964 4.47188H19.5749L17.1796 13.9547Z" fill="white"/>
<path d="M7.84686 6.76876H6.86717V12.2906H7.84686V6.76876Z" fill="white"/>
<path d="M11.3203 6.76876H10.3406V12.2906H11.3203V6.76876Z" fill="white"/>
<path d="M14.789 6.76876H13.8093V12.2906H14.789V6.76876Z" fill="white"/>
</svg>
