<svg width="18" height="18" viewBox="0 0 18 18" fill="none" xmlns="http://www.w3.org/2000/svg">
<path d="M18 12.7116C18 11.6583 17.6845 10.6413 17.0877 9.77041C16.6585 9.14403 16.1057 8.62387 15.4651 8.23732C16.2193 7.52309 16.6912 6.51359 16.6912 5.39532C16.6912 3.23599 14.9344 1.47921 12.7751 1.47921C11.4947 1.47921 10.2953 2.11245 9.56677 3.15196C9.38164 3.12499 9.1925 3.11045 8.99998 3.11045C8.80745 3.11045 8.61836 3.12504 8.43323 3.15196C7.70464 2.11245 6.50523 1.47921 5.22488 1.47921C3.06555 1.47921 1.30877 3.23599 1.30877 5.39532C1.30877 6.51359 1.78066 7.52309 2.5349 8.23732C1.89427 8.62382 1.34148 9.14403 0.912267 9.77036C0.315461 10.6413 0 11.6583 0 12.7116V14.8898H3.77515V16.521H14.2249V14.8898H18V12.7116H18ZM12.7751 2.44575C14.4015 2.44575 15.7247 3.76892 15.7247 5.39537C15.7247 7.02182 14.4015 8.34499 12.7751 8.34499C12.746 8.34499 12.7168 8.34455 12.6877 8.34369C12.6899 8.3375 12.6917 8.33117 12.6939 8.32498C12.7442 8.18223 12.7862 8.03562 12.8199 7.88586C12.8223 7.87523 12.825 7.86469 12.8273 7.85401C12.836 7.81361 12.8437 7.77283 12.8512 7.73195C12.8547 7.71262 12.8583 7.69334 12.8616 7.67396C12.8677 7.63747 12.8732 7.60084 12.8782 7.56407C12.8818 7.5385 12.885 7.51294 12.888 7.48733C12.8918 7.45485 12.8955 7.42233 12.8986 7.38962C12.9017 7.35622 12.904 7.32278 12.9062 7.2893C12.908 7.26291 12.9101 7.23662 12.9113 7.21009C12.914 7.15321 12.9155 7.09624 12.9157 7.03922C12.9157 7.03501 12.916 7.03091 12.916 7.02665C12.916 7.02438 12.9158 7.02211 12.9158 7.01984C12.9157 6.96161 12.9141 6.90372 12.9114 6.84602C12.9107 6.82925 12.9097 6.81253 12.9087 6.79581C12.9058 6.74676 12.9021 6.69795 12.8975 6.64938C12.8965 6.63837 12.8956 6.62735 12.8945 6.61638C12.7484 5.20487 11.8567 3.99672 10.5703 3.43789C11.1247 2.81514 11.9265 2.44575 12.7751 2.44575ZM7.97941 4.25897C7.98884 4.25554 7.99836 4.2523 8.00778 4.24892C8.03711 4.23843 8.06669 4.22848 8.09641 4.21886C8.11893 4.21166 8.14159 4.2047 8.1644 4.19804C8.18097 4.19315 8.1976 4.18847 8.21427 4.18383C8.24404 4.17566 8.27395 4.16769 8.30415 4.16039C8.52741 4.10617 8.76024 4.07674 8.99988 4.07674C9.23971 4.07693 9.47264 4.10641 9.69594 4.16063C9.72595 4.16788 9.75567 4.17581 9.7853 4.18392C9.80221 4.18861 9.81912 4.19335 9.83589 4.19833C9.85841 4.20495 9.88083 4.21181 9.90311 4.21891C9.93322 4.22862 9.96313 4.23868 9.9928 4.24931C10.0019 4.25255 10.0111 4.25564 10.0202 4.25897C11.0066 4.62377 11.7462 5.50168 11.9136 6.56709C11.9149 6.57559 11.9162 6.58415 11.9174 6.5927C11.9228 6.6288 11.9273 6.66519 11.9313 6.70167C11.9327 6.71511 11.9343 6.72849 11.9356 6.74197C11.9388 6.77527 11.9411 6.80881 11.9433 6.84244C11.9441 6.85684 11.9453 6.87119 11.946 6.88564C11.9481 6.9286 11.9492 6.9718 11.9493 7.01525C11.9493 7.01902 11.9495 7.02269 11.9495 7.02646C11.9495 7.0282 11.9495 7.02999 11.9495 7.03173C11.9494 7.07377 11.9481 7.11552 11.9463 7.15713C11.9457 7.17022 11.9451 7.18332 11.9443 7.19637C11.9421 7.23657 11.9391 7.27659 11.9352 7.31631C11.9337 7.33168 11.9317 7.347 11.9299 7.36231C11.927 7.38802 11.9237 7.41368 11.9201 7.4392C11.9173 7.45906 11.9145 7.47897 11.9113 7.49873C11.9064 7.52884 11.901 7.55875 11.8952 7.58857C11.8901 7.6151 11.8844 7.64153 11.8785 7.66792C11.875 7.68382 11.8713 7.69971 11.8675 7.71552C11.8581 7.75471 11.8477 7.79366 11.8367 7.83246C11.8323 7.84788 11.8282 7.86339 11.8236 7.87866C11.8169 7.90089 11.8096 7.92292 11.8024 7.94496C11.7966 7.9626 11.7907 7.98014 11.7845 7.99763C11.7776 8.0175 11.7707 8.03741 11.7634 8.05712C11.7508 8.09061 11.7377 8.12381 11.724 8.15672C11.7179 8.17141 11.7115 8.18595 11.7051 8.2006C11.6932 8.228 11.6809 8.25525 11.6682 8.28222C11.6667 8.28541 11.6652 8.28859 11.6637 8.29178C11.6591 8.30135 11.6545 8.31097 11.6498 8.32054C11.6355 8.34973 11.6207 8.37857 11.6054 8.40718C11.5994 8.4183 11.5937 8.42956 11.5876 8.44062C11.5872 8.44135 11.5868 8.44202 11.5864 8.4427C11.5697 8.47315 11.5523 8.50311 11.5345 8.53287C11.5275 8.54467 11.5205 8.5565 11.5133 8.56815C11.494 8.59951 11.4741 8.63054 11.4537 8.66108C11.441 8.68007 11.4277 8.69868 11.4146 8.71738C11.4034 8.73323 11.3923 8.74913 11.3808 8.76473C11.366 8.78493 11.3509 8.80489 11.3355 8.82475C11.3251 8.83824 11.3145 8.85162 11.3039 8.86496C11.2877 8.88526 11.2713 8.90546 11.2545 8.92532C11.2442 8.93764 11.2335 8.94972 11.2229 8.96185C11.2055 8.98181 11.1882 9.00181 11.1703 9.02129C11.1596 9.03284 11.1486 9.04395 11.1378 9.05536C11.1087 9.08604 11.0789 9.11605 11.0486 9.14548C11.0306 9.16293 11.0126 9.18042 10.9942 9.19738C10.9814 9.20913 10.9683 9.22053 10.9553 9.23208C10.9342 9.25088 10.9128 9.26948 10.8911 9.28765C10.8801 9.29688 10.869 9.30602 10.8579 9.3151C10.8316 9.33646 10.805 9.35738 10.778 9.37787C10.7707 9.38343 10.7634 9.38909 10.756 9.39459C10.2651 9.75959 9.65733 9.97594 8.99993 9.97594C8.34247 9.97594 7.73465 9.75954 7.24368 9.39445C7.23643 9.38904 7.22932 9.38348 7.22212 9.37802C7.19501 9.35748 7.16829 9.33641 7.14195 9.31496C7.13089 9.30592 7.11982 9.29688 7.1089 9.2877C7.0871 9.26943 7.06575 9.25073 7.04448 9.23189C7.03158 9.22038 7.01853 9.20908 7.00582 9.19738C6.98732 9.18037 6.96934 9.16283 6.95126 9.14539C6.92077 9.11586 6.89096 9.08575 6.86177 9.05497C6.85109 9.04371 6.84017 9.03274 6.82968 9.02134C6.81175 9.00181 6.7944 8.98176 6.77701 8.9618C6.76642 8.94967 6.75579 8.93764 6.7454 8.92532C6.72863 8.90546 6.7123 8.88526 6.69606 8.86501C6.68543 8.85167 6.67485 8.83828 6.66441 8.82475C6.64909 8.80494 6.63397 8.78498 6.61913 8.76478C6.60768 8.74913 6.59652 8.73318 6.58535 8.71728C6.57221 8.69863 6.55897 8.68007 6.54631 8.66113C6.52577 8.63044 6.50581 8.59932 6.48643 8.56786C6.47933 8.55631 6.47247 8.54467 6.46551 8.53302C6.44748 8.50282 6.42985 8.47247 6.41288 8.44159C6.40665 8.43023 6.40075 8.41868 6.39462 8.40728C6.37935 8.37857 6.36441 8.34963 6.35006 8.32039C6.34494 8.31 6.33996 8.29952 6.33498 8.28908C6.33421 8.28748 6.33349 8.28589 6.33276 8.28429C6.31938 8.25607 6.30657 8.22756 6.29405 8.19881C6.28811 8.18513 6.28207 8.17151 6.27637 8.15778C6.26235 8.12415 6.24897 8.09022 6.23616 8.05601C6.22925 8.03755 6.22287 8.0189 6.21635 8.00029C6.20963 7.9812 6.20316 7.96197 6.19683 7.94269C6.19001 7.92181 6.18315 7.90094 6.17677 7.87996C6.16725 7.8486 6.15826 7.81705 6.14981 7.7853C6.14386 7.76302 6.1385 7.74055 6.13304 7.71813C6.12878 7.70049 6.12468 7.68285 6.12076 7.66511C6.11593 7.64337 6.11105 7.62167 6.1067 7.59983C6.09998 7.56581 6.09385 7.53159 6.08834 7.49719C6.08534 7.47863 6.08273 7.46003 6.08007 7.44147C6.07616 7.41397 6.07263 7.38633 6.06949 7.35859C6.06794 7.34492 6.06616 7.33124 6.06475 7.31757C6.06074 7.27683 6.0577 7.2358 6.05538 7.19463C6.0547 7.18279 6.05417 7.17095 6.05364 7.15911C6.05166 7.11509 6.05026 7.07092 6.05026 7.02646C6.05026 6.97881 6.05161 6.9315 6.05388 6.88439C6.05451 6.87158 6.05557 6.85887 6.0563 6.84611C6.05842 6.81074 6.06099 6.77546 6.06437 6.74038C6.06553 6.72815 6.06693 6.71598 6.06823 6.7038C6.07239 6.66582 6.07708 6.62803 6.08268 6.59048C6.08375 6.58318 6.08481 6.57583 6.08597 6.56854C6.25283 5.5025 6.99258 4.62401 7.97941 4.25897ZM2.27526 5.39537C2.27526 3.76896 3.59842 2.44575 5.22488 2.44575C6.0736 2.44575 6.87535 2.81519 7.42968 3.4378C6.14285 3.99681 5.25092 5.20555 5.10532 6.61764C5.10431 6.6272 5.10358 6.63682 5.10267 6.64644C5.09783 6.69674 5.09402 6.74724 5.09112 6.79803C5.09025 6.81349 5.08928 6.82891 5.08855 6.84442C5.0858 6.90488 5.08392 6.96552 5.08392 7.0266C5.08392 7.08827 5.0857 7.14978 5.0886 7.21125C5.08976 7.23599 5.09179 7.26049 5.09339 7.28509C5.09576 7.32047 5.09817 7.35584 5.10146 7.39112C5.10436 7.42248 5.10793 7.45365 5.11161 7.48482C5.11479 7.51197 5.11818 7.53904 5.12195 7.5661C5.12688 7.60162 5.13219 7.63699 5.13804 7.67222C5.14157 7.69314 5.14543 7.71402 5.14925 7.73489C5.1565 7.77433 5.16389 7.81366 5.1723 7.85266C5.1751 7.86551 5.17829 7.87827 5.18119 7.89108C5.214 8.0362 5.25474 8.17827 5.30326 8.31682C5.30635 8.32576 5.30906 8.33479 5.3122 8.34369C5.28306 8.34455 5.25387 8.34499 5.22478 8.34499C3.59842 8.34494 2.27526 7.02177 2.27526 5.39537ZM4.5854 11.5568C4.57477 11.5735 4.56462 11.5906 4.55418 11.6075C4.5321 11.6431 4.51021 11.6789 4.48904 11.715C4.4772 11.7351 4.4658 11.7554 4.4543 11.7757C4.43526 11.8092 4.41646 11.8428 4.39819 11.8767C4.38669 11.898 4.37538 11.9194 4.36417 11.9408C4.34658 11.9745 4.32943 12.0084 4.31261 12.0423C4.30203 12.0637 4.29149 12.085 4.28125 12.1065C4.26414 12.1423 4.24766 12.1784 4.23138 12.2145C4.22253 12.2342 4.21345 12.2537 4.2049 12.2735C4.18605 12.3168 4.16807 12.3604 4.15043 12.4042C4.14526 12.417 4.13975 12.4297 4.13473 12.4425C4.11235 12.4993 4.09095 12.5566 4.07065 12.6142C4.06601 12.6273 4.06186 12.6407 4.05726 12.6539C4.04199 12.6982 4.02711 12.7427 4.01305 12.7874C4.00662 12.808 4.00068 12.8286 3.99449 12.8492C3.98313 12.8871 3.97197 12.925 3.96149 12.9632C3.95525 12.9859 3.94931 13.0087 3.94336 13.0315C3.9338 13.0681 3.92461 13.1048 3.91592 13.1417C3.91036 13.1651 3.90495 13.1884 3.89978 13.2118C3.89146 13.2491 3.88368 13.2866 3.87619 13.3242C3.8717 13.3468 3.86706 13.3693 3.86286 13.392C3.85527 13.4329 3.84845 13.4739 3.84183 13.5151C3.83874 13.5344 3.83531 13.5536 3.83241 13.573C3.82342 13.6334 3.81526 13.6939 3.80839 13.7548C3.8083 13.7555 3.80825 13.7562 3.8082 13.7569C3.80197 13.8123 3.7966 13.8677 3.79211 13.9233H0.966487V12.7116C0.966487 11.0561 1.91819 9.56987 3.40919 8.86346C3.95235 9.14896 4.56979 9.31148 5.22483 9.31148C5.41426 9.31148 5.60427 9.29746 5.79283 9.26972C5.82222 9.31162 5.85208 9.35308 5.88301 9.39377C5.89345 9.40745 5.90427 9.42079 5.9149 9.43432C5.94544 9.47336 5.97642 9.51197 6.00841 9.54981C6.0215 9.56532 6.03494 9.5805 6.04828 9.59582C6.07824 9.63022 6.10868 9.6642 6.1398 9.69749C6.15614 9.71503 6.17276 9.73228 6.18938 9.74954C6.21785 9.77887 6.2467 9.80777 6.27603 9.83623C6.28705 9.84691 6.29744 9.85822 6.30855 9.8688C6.26656 9.89417 6.22495 9.92017 6.18373 9.9467C6.17701 9.951 6.17044 9.95554 6.16377 9.95989C6.12255 9.98666 6.08176 10.014 6.04137 10.0419C6.0274 10.0516 6.01348 10.0613 5.99957 10.0711C5.96356 10.0965 5.92795 10.1223 5.89262 10.1485C5.88146 10.1568 5.87015 10.1649 5.85909 10.1733C5.81414 10.2073 5.76973 10.2419 5.7259 10.2773C5.71634 10.285 5.70696 10.293 5.69739 10.3008C5.6625 10.3294 5.62795 10.3584 5.59383 10.3879C5.58059 10.3993 5.56745 10.4108 5.5543 10.4224C5.52014 10.4525 5.48641 10.483 5.45302 10.514C5.44432 10.522 5.43543 10.53 5.42678 10.5381C5.3858 10.5767 5.34545 10.616 5.30568 10.656C5.29533 10.6663 5.28523 10.6769 5.27499 10.6874C5.24455 10.7184 5.21444 10.7499 5.18472 10.7817C5.17293 10.7944 5.16114 10.807 5.14944 10.8198C5.116 10.8564 5.08305 10.8934 5.05062 10.9309C5.04555 10.9368 5.04028 10.9425 5.0352 10.9485C4.99824 10.9916 4.96209 11.0356 4.92643 11.08C4.91647 11.0924 4.90676 11.1049 4.89695 11.1175C4.87013 11.1515 4.8437 11.1859 4.8177 11.2207C4.80764 11.2341 4.79754 11.2474 4.78764 11.261C4.75362 11.3074 4.72003 11.3541 4.68741 11.4017C4.65238 11.4529 4.61846 11.5046 4.5854 11.5568ZM4.74163 15.5545V14.8898V14.3428C4.74163 14.2892 4.74265 14.2357 4.74463 14.1824C4.74526 14.1649 4.74666 14.1475 4.74753 14.13C4.74927 14.0944 4.75091 14.0588 4.75352 14.0234C4.75512 14.0019 4.75753 13.9806 4.75947 13.9591C4.76227 13.9279 4.76478 13.8966 4.76826 13.8656C4.77082 13.8429 4.77416 13.8203 4.77706 13.7977C4.78082 13.7681 4.78435 13.7386 4.7887 13.7092C4.79223 13.6858 4.79648 13.6626 4.80035 13.6393C4.80508 13.611 4.80948 13.5826 4.8148 13.5544C4.81929 13.5306 4.82451 13.507 4.82939 13.4833C4.835 13.4559 4.84036 13.4285 4.8465 13.4013C4.85191 13.3773 4.8581 13.3536 4.86389 13.3297C4.87042 13.3032 4.87665 13.2764 4.88366 13.25C4.89004 13.226 4.89709 13.2022 4.90386 13.1784C4.9112 13.1524 4.91836 13.1264 4.92618 13.1007C4.93348 13.0767 4.9415 13.0529 4.94919 13.0291C4.9574 13.0038 4.96538 12.9785 4.97403 12.9534C4.98224 12.9297 4.99108 12.9062 4.99969 12.8826C5.00877 12.8578 5.01766 12.8329 5.02718 12.8082C5.03627 12.7848 5.04593 12.7616 5.05536 12.7383C5.06526 12.714 5.07502 12.6896 5.08537 12.6655C5.09537 12.6422 5.1059 12.6192 5.11629 12.5962C5.12697 12.5725 5.13756 12.5487 5.14867 12.5252C5.15954 12.5022 5.17095 12.4796 5.18221 12.4568C5.19371 12.4336 5.20506 12.4104 5.21695 12.3874C5.22869 12.3648 5.24092 12.3425 5.25305 12.3201C5.26533 12.2974 5.27745 12.2748 5.29012 12.2524C5.30268 12.2301 5.31573 12.2082 5.32863 12.1862C5.34168 12.1641 5.35463 12.1419 5.36811 12.12C5.3815 12.0982 5.39532 12.0767 5.40909 12.0552C5.42291 12.0336 5.43663 12.012 5.45084 11.9906C5.46505 11.9693 5.47964 11.9482 5.49424 11.9271C5.50878 11.9061 5.52328 11.8851 5.53816 11.8643C5.55314 11.8434 5.56856 11.8228 5.58398 11.8022C5.59925 11.7818 5.61447 11.7613 5.63008 11.7412C5.64583 11.7208 5.66197 11.7008 5.67811 11.6807C5.69411 11.6608 5.71015 11.6409 5.72648 11.6213C5.74296 11.6016 5.75978 11.5821 5.7766 11.5627C5.79337 11.5433 5.81018 11.5239 5.82734 11.5048C5.84449 11.4856 5.86203 11.4668 5.87953 11.4479C5.89702 11.4291 5.91451 11.4104 5.93235 11.392C5.95023 11.3734 5.96844 11.3552 5.98671 11.3369C6.00493 11.3187 6.02324 11.3006 6.0418 11.2827C6.06031 11.2648 6.07911 11.2473 6.098 11.2297C6.11695 11.2121 6.13598 11.1946 6.15527 11.1773C6.1745 11.1601 6.19393 11.1431 6.2135 11.1262C6.23312 11.1093 6.25288 11.0924 6.27284 11.0758C6.2927 11.0593 6.31276 11.043 6.33295 11.0268C6.3533 11.0105 6.37379 10.9943 6.39447 10.9783C6.41491 10.9625 6.43555 10.947 6.45628 10.9315C6.47735 10.9158 6.49856 10.9003 6.52002 10.885C6.54099 10.8699 6.56216 10.8551 6.58347 10.8405C6.60531 10.8254 6.62725 10.8106 6.64938 10.796C6.67089 10.7817 6.69258 10.7677 6.71438 10.7538C6.73695 10.7395 6.75966 10.7253 6.78252 10.7114C6.80455 10.698 6.82673 10.6847 6.84906 10.6716C6.87225 10.658 6.89564 10.6446 6.91918 10.6315C6.94175 10.6188 6.96446 10.6063 6.98731 10.594C7.01124 10.5812 7.03535 10.5685 7.05961 10.5561C7.08261 10.5442 7.10571 10.5326 7.129 10.5211C7.14732 10.5121 7.16583 10.5034 7.18433 10.4947C7.72745 10.7802 8.34499 10.9427 8.99998 10.9427C9.65501 10.9427 10.2725 10.7802 10.8156 10.4947C10.834 10.5034 10.8523 10.512 10.8705 10.5209C10.8941 10.5325 10.9174 10.5443 10.9407 10.5563C10.9647 10.5686 10.9886 10.5811 11.0123 10.5938C11.0353 10.6062 11.0583 10.6188 11.0811 10.6316C11.1044 10.6447 11.1275 10.6579 11.1504 10.6713C11.173 10.6846 11.1955 10.698 11.2178 10.7117C11.2404 10.7254 11.2628 10.7394 11.285 10.7535C11.3071 10.7676 11.3291 10.7818 11.3509 10.7962C11.3728 10.8107 11.3944 10.8254 11.416 10.8402C11.4375 10.8551 11.4589 10.87 11.4801 10.8852C11.5013 10.9003 11.5223 10.9157 11.5432 10.9313C11.5642 10.9468 11.585 10.9625 11.6056 10.9785C11.6261 10.9943 11.6464 11.0104 11.6666 11.0266C11.6869 11.0428 11.7071 11.0592 11.7271 11.0758C11.747 11.0924 11.7666 11.1091 11.7861 11.126C11.8058 11.143 11.8254 11.16 11.8447 11.1774C11.8638 11.1945 11.8827 11.2119 11.9015 11.2294C11.9206 11.2471 11.9395 11.2648 11.9582 11.2829C11.9767 11.3006 11.9948 11.3186 12.0128 11.3366C12.0312 11.355 12.0495 11.3734 12.0676 11.392C12.0852 11.4104 12.1027 11.429 12.12 11.4476C12.1377 11.4666 12.1554 11.4856 12.1727 11.5049C12.1897 11.5239 12.2063 11.543 12.223 11.5623C12.2399 11.5819 12.2569 11.6015 12.2735 11.6214C12.2898 11.6409 12.3057 11.6606 12.3216 11.6804C12.3378 11.7006 12.354 11.7207 12.3699 11.7412C12.3854 11.7613 12.4006 11.7816 12.4157 11.802C12.4312 11.8227 12.4467 11.8434 12.4617 11.8644C12.4766 11.885 12.491 11.906 12.5055 11.9269C12.5201 11.9481 12.5348 11.9692 12.5491 11.9907C12.5632 12.0119 12.5768 12.0333 12.5905 12.0548C12.6044 12.0765 12.6183 12.0981 12.6318 12.1201C12.6451 12.1418 12.658 12.1638 12.6709 12.1858C12.684 12.2079 12.6971 12.23 12.7097 12.2524C12.7224 12.2747 12.7344 12.2973 12.7467 12.3198C12.7588 12.3423 12.7711 12.3647 12.7829 12.3874C12.7947 12.4103 12.8061 12.4335 12.8176 12.4567C12.8288 12.4794 12.8403 12.5021 12.8511 12.5251C12.8623 12.5486 12.8728 12.5724 12.8834 12.596C12.8939 12.6192 12.9044 12.6422 12.9144 12.6655C12.9247 12.6894 12.9344 12.7137 12.9442 12.7378C12.9538 12.7613 12.9635 12.7847 12.9727 12.8084C12.9821 12.8329 12.991 12.8577 13 12.8824C13.0087 12.906 13.0175 12.9296 13.0257 12.9534C13.0344 12.9786 13.0425 13.004 13.0507 13.0294C13.0584 13.0531 13.0663 13.0768 13.0736 13.1007C13.0815 13.1264 13.0886 13.1525 13.0959 13.1784C13.1027 13.2023 13.1098 13.226 13.1161 13.25C13.1232 13.2764 13.1294 13.3031 13.1359 13.3297C13.1418 13.3536 13.1479 13.3773 13.1533 13.4013C13.1594 13.4285 13.1648 13.4559 13.1704 13.4832C13.1753 13.5069 13.1805 13.5305 13.185 13.5544C13.1903 13.5823 13.1946 13.6105 13.1994 13.6386C13.2033 13.6622 13.2076 13.6856 13.2112 13.7092C13.2155 13.7384 13.219 13.7678 13.2228 13.797C13.2257 13.8199 13.2291 13.8426 13.2316 13.8656C13.2351 13.8966 13.2376 13.9279 13.2404 13.9591C13.2424 13.9805 13.2448 14.0018 13.2464 14.0233C13.249 14.0588 13.2506 14.0944 13.2524 14.13C13.2532 14.1475 13.2546 14.1649 13.2553 14.1824C13.2573 14.2357 13.2583 14.2891 13.2583 14.3428V14.8897V15.5545H4.74163ZM14.2081 13.9233C14.1986 13.8056 14.185 13.6886 14.1677 13.5723C14.1649 13.5539 14.1616 13.5357 14.1587 13.5173C14.152 13.4752 14.145 13.4332 14.1372 13.3914C14.1331 13.3693 14.1286 13.3474 14.1242 13.3254C14.1166 13.2872 14.1087 13.249 14.1002 13.2111C14.0951 13.1882 14.0898 13.1652 14.0844 13.1424C14.0755 13.1051 14.0663 13.068 14.0566 13.0309C14.0507 13.0084 14.0449 12.986 14.0387 12.9636C14.0281 12.925 14.0168 12.8867 14.0053 12.8483C13.9992 12.8281 13.9934 12.8079 13.9871 12.7877C13.9728 12.7424 13.9578 12.6972 13.9423 12.6522C13.9379 12.6396 13.9339 12.6269 13.9295 12.6143C13.9091 12.5566 13.8877 12.4992 13.8652 12.4421C13.8604 12.4299 13.8551 12.4178 13.8502 12.4056C13.8324 12.3613 13.8141 12.3171 13.795 12.2732C13.7866 12.2537 13.7776 12.2345 13.7689 12.2151C13.7525 12.1786 13.7359 12.1422 13.7186 12.106C13.7085 12.0849 13.698 12.0638 13.6876 12.0428C13.6707 12.0085 13.6533 11.9743 13.6356 11.9404C13.6245 11.9191 13.6133 11.8979 13.6019 11.8768C13.5835 11.8429 13.5647 11.8091 13.5456 11.7755C13.5341 11.7553 13.5227 11.7351 13.511 11.715C13.4897 11.6787 13.4677 11.6428 13.4455 11.607C13.4351 11.5903 13.4251 11.5734 13.4146 11.5568C13.3814 11.5047 13.3475 11.4529 13.3124 11.4017C13.2798 11.3541 13.2462 11.3073 13.2122 11.2609C13.2023 11.2475 13.1923 11.2342 13.1823 11.2209C13.1562 11.1859 13.1296 11.1514 13.1027 11.1172C13.093 11.1049 13.0834 11.0924 13.0735 11.0802C13.0378 11.0356 13.0015 10.9916 12.9645 10.9483C12.9596 10.9427 12.9546 10.9373 12.9498 10.9316C12.9171 10.8938 12.8839 10.8565 12.8502 10.8197C12.8386 10.807 12.827 10.7945 12.8153 10.7819C12.7854 10.7499 12.7551 10.7182 12.7245 10.687C12.7144 10.6767 12.7045 10.6663 12.6943 10.6561C12.6544 10.6161 12.6139 10.5767 12.5728 10.538C12.5644 10.5301 12.5557 10.5223 12.5472 10.5144C12.5136 10.4832 12.4797 10.4526 12.4454 10.4223C12.4323 10.4108 12.4192 10.3994 12.406 10.388C12.3718 10.3585 12.3373 10.3294 12.3023 10.3008C12.2928 10.293 12.2835 10.2851 12.2739 10.2773C12.2301 10.242 12.1857 10.2074 12.1408 10.1734C12.1296 10.165 12.1182 10.1568 12.1069 10.1484C12.0718 10.1223 12.0363 10.0966 12.0005 10.0714C11.9864 10.0615 11.9724 10.0516 11.9582 10.0419C11.9182 10.0143 11.8779 9.9872 11.8371 9.96071C11.8299 9.95607 11.8229 9.95124 11.8158 9.94665C11.7746 9.92022 11.7332 9.89427 11.6912 9.86895C11.702 9.85865 11.7122 9.84768 11.7229 9.83725C11.7528 9.80825 11.7823 9.77877 11.8112 9.74881C11.8274 9.73209 11.8435 9.71532 11.8594 9.69831C11.891 9.66449 11.9219 9.62998 11.9523 9.59504C11.9653 9.58021 11.9783 9.56547 11.991 9.55039C12.0234 9.51202 12.0549 9.47283 12.0859 9.43316C12.096 9.42021 12.1064 9.40745 12.1164 9.39435C12.1474 9.35352 12.1774 9.31186 12.207 9.26982C12.3955 9.29751 12.5855 9.31152 12.775 9.31152C13.43 9.31152 14.0475 9.14906 14.5906 8.86351C16.0817 9.56991 17.0333 11.0561 17.0333 12.7116V13.9233H14.2081Z" fill="#3978BF"/>
</svg>
